<svg width="50" height="50" viewBox="0 0 50 50" fill="none" xmlns="http://www.w3.org/2000/svg">
<rect width="50" height="50" rx="12.5" fill="url(#paint0_linear_141_689)"/>
<path d="M9.61665 21.6667C8.89998 21.6667 8.33331 21.1 8.33331 20.3834V16.5334C8.33331 12.0167 12.0166 8.33337 16.5333 8.33337H20.3833C21.1 8.33337 21.6666 8.90004 21.6666 9.61671C21.6666 10.3334 21.1 10.9 20.3833 10.9H16.5333C13.4166 10.9 10.9 13.4334 10.9 16.5334V20.3834C10.9 21.1 10.3166 21.6667 9.61665 21.6667Z" fill="white"/>
<path d="M40.3833 21.6667C39.6833 21.6667 39.1 21.1 39.1 20.3834V16.5334C39.1 13.4167 36.5666 10.9 33.4666 10.9H29.6166C28.9 10.9 28.3333 10.3167 28.3333 9.61671C28.3333 8.91671 28.9 8.33337 29.6166 8.33337H33.4666C37.9833 8.33337 41.6666 12.0167 41.6666 16.5334V20.3834C41.6666 21.1 41.1 21.6667 40.3833 21.6667Z" fill="white"/>
<path d="M33.4666 41.6666H31.15C30.45 41.6666 29.8666 41.1 29.8666 40.3833C29.8666 39.6833 30.4333 39.1 31.15 39.1H33.4666C36.5833 39.1 39.1 36.5666 39.1 33.4666V31.1666C39.1 30.4666 39.6666 29.8833 40.3833 29.8833C41.0833 29.8833 41.6666 30.45 41.6666 31.1666V33.4666C41.6666 37.9833 37.9833 41.6666 33.4666 41.6666Z" fill="white"/>
<path d="M20.3833 41.6667H16.5333C12.0166 41.6667 8.33331 37.9834 8.33331 33.4667V29.6167C8.33331 28.9 8.89998 28.3334 9.61665 28.3334C10.3333 28.3334 10.9 28.9 10.9 29.6167V33.4667C10.9 36.5834 13.4333 39.1 16.5333 39.1H20.3833C21.0833 39.1 21.6666 39.6667 21.6666 40.3834C21.6666 41.1 21.1 41.6667 20.3833 41.6667Z" fill="white"/>
<path d="M35.7667 23.7167H33.5H16.5H14.2333C13.5167 23.7167 12.95 24.3 12.95 25C12.95 25.7 13.5167 26.2833 14.2333 26.2833H16.5H33.5H35.7667C36.4833 26.2833 37.05 25.7 37.05 25C37.05 24.3 36.4833 23.7167 35.7667 23.7167Z" fill="white"/>
<path d="M16.5 28.2333V28.7833C16.5 31.55 18.7333 33.7833 21.5 33.7833H28.5C31.2667 33.7833 33.5 31.55 33.5 28.7833V28.2333C33.5 28.0333 33.35 27.8833 33.15 27.8833H16.85C16.65 27.8833 16.5 28.0333 16.5 28.2333Z" fill="white"/>
<path d="M16.5 21.7667V21.2167C16.5 18.45 18.7333 16.2167 21.5 16.2167H28.5C31.2667 16.2167 33.5 18.45 33.5 21.2167V21.7667C33.5 21.9667 33.35 22.1167 33.15 22.1167H16.85C16.65 22.1167 16.5 21.9667 16.5 21.7667Z" fill="white"/>
<defs>
<linearGradient id="paint0_linear_141_689" x1="30.2368" y1="50" x2="26.8822" y2="4.22568" gradientUnits="userSpaceOnUse">
<stop stop-color="#0070FA"/>
<stop offset="1" stop-color="#007DEB"/>
</linearGradient>
</defs>
</svg>
