<svg width="197" height="39" viewBox="0 0 197 39" fill="none" xmlns="http://www.w3.org/2000/svg">
<rect width="196.606" height="38.6766" rx="10" fill="white"/>
<path d="M53.7518 13.9623H60.069V22.5614H59.115V14.8647H54.7059V22.5614H53.7518V13.9623Z" fill="#304050"/>
<path d="M66.581 21.9168C66.0481 22.4496 65.3734 22.7161 64.5569 22.7161C63.7404 22.7161 63.0614 22.4496 62.5199 21.9168C61.9871 21.3839 61.7206 20.7135 61.7206 19.9056C61.7206 19.0891 61.9871 18.4144 62.5199 17.8815C63.0614 17.3486 63.7404 17.0822 64.5569 17.0822C65.3734 17.0822 66.0481 17.3486 66.581 17.8815C67.1224 18.4144 67.3932 19.0891 67.3932 19.9056C67.3932 20.7135 67.1224 21.3839 66.581 21.9168ZM65.8848 18.4359C65.5238 18.0835 65.0812 17.9073 64.5569 17.9073C64.0326 17.9073 63.5857 18.0878 63.2161 18.4488C62.8551 18.8012 62.6746 19.2868 62.6746 19.9056C62.6746 20.5244 62.8594 21.01 63.229 21.3624C63.5986 21.7148 64.0412 21.891 64.5569 21.891C65.0726 21.891 65.5152 21.7148 65.8848 21.3624C66.2544 21.01 66.4392 20.5244 66.4392 19.9056C66.4392 19.2782 66.2544 18.7883 65.8848 18.4359Z" fill="#304050"/>
<path d="M68.8167 17.2111H69.7449V20.7436L73.4063 16.7986V22.5614H72.478V18.9902L68.8167 22.9352V17.2111Z" fill="#304050"/>
<path d="M79.352 17.5979V18.7066C78.9309 18.1737 78.3722 17.9073 77.676 17.9073C77.1517 17.9073 76.7048 18.0878 76.3352 18.4488C75.9657 18.8012 75.7809 19.2868 75.7809 19.9056C75.7809 20.5244 75.9657 21.01 76.3352 21.3624C76.7048 21.7148 77.1474 21.891 77.6631 21.891C78.3507 21.891 78.9266 21.6116 79.3907 21.053V22.1617C78.8836 22.5313 78.3163 22.7161 77.6889 22.7161C76.8552 22.7161 76.1676 22.4539 75.6262 21.9297C75.0933 21.3968 74.8268 20.7264 74.8268 19.9185C74.8268 19.102 75.0976 18.4273 75.639 17.8944C76.1805 17.3529 76.8638 17.0822 77.6889 17.0822C78.3077 17.0822 78.8621 17.2541 79.352 17.5979Z" fill="#304050"/>
<path d="M80.815 17.2111H81.7432V19.4028L83.9091 17.2111H85.0436L82.723 19.5962L85.3272 22.5614H84.1154L82.0268 20.215L81.7432 20.4857V22.5614H80.815V17.2111Z" fill="#304050"/>
<path d="M89.2629 17.2111H90.1911V20.7436L93.8525 16.7986V22.5614H92.9243V18.9902L89.2629 22.9352V17.2111Z" fill="#304050"/>
<path d="M95.6082 22.5614V17.2111H96.5365V19.4028H99.0634V17.2111H99.9916V22.5614H99.0634V20.2537H96.5365V22.5614H95.6082Z" fill="#304050"/>
<path d="M104.589 25.5266V22.6516C103.652 22.6516 102.9 22.4196 102.333 21.9554C101.714 21.4569 101.404 20.7651 101.404 19.8798C101.404 19.0031 101.71 18.3155 102.32 17.817C102.87 17.3529 103.626 17.1209 104.589 17.1209V13.9623H105.517V17.1209C106.48 17.1209 107.236 17.3529 107.786 17.817C108.396 18.3155 108.701 19.0031 108.701 19.8798C108.701 20.7651 108.392 21.4569 107.773 21.9554C107.206 22.4196 106.454 22.6516 105.517 22.6516V25.5266H104.589ZM104.589 21.8265V17.946C103.979 17.946 103.502 18.0577 103.158 18.2812C102.625 18.6164 102.358 19.1492 102.358 19.8798C102.358 20.5674 102.608 21.0874 103.106 21.4398C103.467 21.6976 103.961 21.8265 104.589 21.8265ZM105.517 17.946V21.8265C106.144 21.8265 106.639 21.6976 107 21.4398C107.498 21.0874 107.747 20.5674 107.747 19.8798C107.747 19.1492 107.481 18.6164 106.948 18.2812C106.604 18.0577 106.127 17.946 105.517 17.946Z" fill="#304050"/>
<path d="M114.65 21.9168C114.117 22.4496 113.442 22.7161 112.626 22.7161C111.809 22.7161 111.13 22.4496 110.589 21.9168C110.056 21.3839 109.789 20.7135 109.789 19.9056C109.789 19.0891 110.056 18.4144 110.589 17.8815C111.13 17.3486 111.809 17.0822 112.626 17.0822C113.442 17.0822 114.117 17.3486 114.65 17.8815C115.191 18.4144 115.462 19.0891 115.462 19.9056C115.462 20.7135 115.191 21.3839 114.65 21.9168ZM113.954 18.4359C113.593 18.0835 113.15 17.9073 112.626 17.9073C112.101 17.9073 111.654 18.0878 111.285 18.4488C110.924 18.8012 110.743 19.2868 110.743 19.9056C110.743 20.5244 110.928 21.01 111.298 21.3624C111.667 21.7148 112.11 21.891 112.626 21.891C113.141 21.891 113.584 21.7148 113.954 21.3624C114.323 21.01 114.508 20.5244 114.508 19.9056C114.508 19.2782 114.323 18.7883 113.954 18.4359Z" fill="#304050"/>
<path d="M117.814 21.8136V25.5266H116.885V17.2111H117.814V17.9589C118.286 17.3744 118.897 17.0822 119.644 17.0822C120.444 17.0822 121.075 17.3658 121.539 17.9331C122.012 18.4917 122.249 19.1535 122.249 19.9185C122.249 20.692 122.016 21.3538 121.552 21.9039C121.088 22.4453 120.465 22.7161 119.683 22.7161C118.901 22.7161 118.278 22.4153 117.814 21.8136ZM119.554 21.891C120.078 21.891 120.5 21.7019 120.818 21.3237C121.136 20.937 121.295 20.4685 121.295 19.9185C121.295 19.2996 121.118 18.8097 120.766 18.4488C120.414 18.0878 120.005 17.9073 119.541 17.9073C119.077 17.9073 118.665 18.0878 118.304 18.4488C117.943 18.8097 117.762 19.2954 117.762 19.9056C117.762 20.4642 117.925 20.937 118.252 21.3237C118.587 21.7019 119.021 21.891 119.554 21.891Z" fill="#304050"/>
<path d="M123.053 22.5614L124.342 16.7986L126.559 21.1561L128.725 16.7986L130.014 22.5614H129.06L128.351 19.2481L126.534 22.9352L124.69 19.2481L124.007 22.5614H123.053Z" fill="#304050"/>
<path d="M135.25 17.9718V17.2111H136.178V22.5614H135.25V21.8136C134.786 22.4153 134.175 22.7161 133.419 22.7161C132.697 22.7161 132.082 22.4668 131.575 21.9683C131.068 21.4698 130.815 20.7737 130.815 19.8798C130.815 19.0031 131.064 18.3198 131.562 17.8299C132.07 17.3314 132.688 17.0822 133.419 17.0822C134.192 17.0822 134.803 17.3787 135.25 17.9718ZM133.522 17.9073C133.032 17.9073 132.615 18.0835 132.272 18.4359C131.936 18.7797 131.769 19.261 131.769 19.8798C131.769 20.4728 131.923 20.9584 132.233 21.3366C132.551 21.7062 132.981 21.891 133.522 21.891C134.064 21.891 134.493 21.6976 134.811 21.3108C135.138 20.9241 135.301 20.4514 135.301 19.8927C135.301 19.2567 135.121 18.7668 134.76 18.423C134.399 18.0792 133.986 17.9073 133.522 17.9073Z" fill="#304050"/>
<path d="M137.936 22.5614V17.2111H138.864V21.7105H141.262V17.2111H142.19V21.7105H143.067V23.9795H142.216V22.5614H137.936Z" fill="#304050"/>
<path d="M144.042 17.2111H144.97V20.7436L148.632 16.7986V22.5614H147.703V18.9902L144.042 22.9352V17.2111Z" fill="#304050"/>
<path d="M150.387 17.2111H151.316V20.7436L154.977 16.7986V22.5614H154.049V18.9902L150.387 22.9352V17.2111Z" fill="#304050"/>
<path d="M156.875 22.4969C156.746 22.368 156.681 22.2176 156.681 22.0457C156.681 21.8738 156.746 21.7234 156.875 21.5945C157.004 21.4655 157.154 21.4011 157.326 21.4011C157.498 21.4011 157.648 21.4655 157.777 21.5945C157.906 21.7234 157.971 21.8738 157.971 22.0457C157.971 22.2176 157.906 22.368 157.777 22.4969C157.648 22.6258 157.498 22.6903 157.326 22.6903C157.154 22.6903 157.004 22.6258 156.875 22.4969Z" fill="#304050"/>
<path d="M159.808 22.4969C159.679 22.368 159.615 22.2176 159.615 22.0457C159.615 21.8738 159.679 21.7234 159.808 21.5945C159.937 21.4655 160.087 21.4011 160.259 21.4011C160.431 21.4011 160.582 21.4655 160.711 21.5945C160.84 21.7234 160.904 21.8738 160.904 22.0457C160.904 22.2176 160.84 22.368 160.711 22.4969C160.582 22.6258 160.431 22.6903 160.259 22.6903C160.087 22.6903 159.937 22.6258 159.808 22.4969Z" fill="#304050"/>
<path d="M162.742 22.4969C162.613 22.368 162.548 22.2176 162.548 22.0457C162.548 21.8738 162.613 21.7234 162.742 21.5945C162.871 21.4655 163.021 21.4011 163.193 21.4011C163.365 21.4011 163.515 21.4655 163.644 21.5945C163.773 21.7234 163.837 21.8738 163.837 22.0457C163.837 22.2176 163.773 22.368 163.644 22.4969C163.515 22.6258 163.365 22.6903 163.193 22.6903C163.021 22.6903 162.871 22.6258 162.742 22.4969Z" fill="#304050"/>
<path d="M28.2912 17.5477C28.2912 21.1073 25.4048 23.9938 21.8451 23.9938C18.2854 23.9938 15.399 21.1073 15.399 17.5477C15.399 13.988 18.2854 11.1016 21.8451 11.1016" stroke="#304050" stroke-linecap="round" stroke-linejoin="round"/>
<path d="M27.5248 24.4878C27.9044 25.6338 28.771 25.7484 29.4371 24.7457C30.0459 23.8289 29.6449 23.0768 28.5419 23.0768C27.7253 23.0697 27.267 23.7071 27.5248 24.4878Z" stroke="#304050" stroke-linecap="round" stroke-linejoin="round"/>
<path d="M23.9938 13.2504H28.2912" stroke="#304050" stroke-linecap="round" stroke-linejoin="round"/>
<path d="M23.9938 15.399H26.1425" stroke="#304050" stroke-linecap="round" stroke-linejoin="round"/>
</svg>
