<svg width="590" height="283" viewBox="0 0 590 283" fill="none" xmlns="http://www.w3.org/2000/svg">
<path opacity="0.12" d="M287 178.916L287.999 178.948L287 178.916ZM579.167 23.9156C579.167 26.8611 581.554 29.249 584.5 29.249C587.446 29.249 589.833 26.8611 589.833 23.9156C589.833 20.9701 587.446 18.5823 584.5 18.5823C581.554 18.5823 579.167 20.9701 579.167 23.9156ZM0.24249 121.568C0.455562 121.816 0.669133 122.063 0.883199 122.311L2.3967 121.004C2.18314 120.756 1.97008 120.509 1.75751 120.263L0.24249 121.568ZM2.17351 123.801C2.60558 124.299 3.0396 124.798 3.47555 125.298L4.983 123.984C4.54806 123.485 4.11505 122.987 3.68399 122.49L2.17351 123.801ZM4.78916 126.801C5.22893 127.303 5.67061 127.806 6.11417 128.31L7.61557 126.989C7.17302 126.486 6.73235 125.984 6.29358 125.483L4.78916 126.801ZM7.45043 129.825C7.8977 130.331 8.34683 130.838 8.79777 131.346L10.2931 130.017C9.84318 129.511 9.39506 129.005 8.9488 128.5L7.45043 129.825ZM10.1208 132.832C10.5587 133.323 10.9982 133.814 11.4394 134.307L12.9289 132.972C12.4887 132.481 12.0501 131.99 11.6132 131.5L10.1208 132.832ZM12.768 135.786C13.2124 136.28 13.6585 136.774 14.1062 137.269L15.5898 135.928C15.1431 135.434 14.698 134.94 14.2545 134.448L12.768 135.786ZM15.454 138.757C15.9048 139.253 16.3572 139.75 16.8112 140.248L18.2889 138.9C17.8359 138.404 17.3845 137.908 16.9346 137.412L15.454 138.757ZM18.1777 141.743C18.6259 142.232 19.0756 142.722 19.5267 143.212L20.9984 141.858C20.5483 141.369 20.0996 140.88 19.6524 140.392L18.1777 141.743ZM20.8704 144.669C21.3198 145.156 21.7705 145.642 22.2226 146.129L23.6885 144.769C23.2374 144.283 22.7876 143.797 22.3393 143.312L20.8704 144.669ZM23.5829 147.592C24.0377 148.08 24.4939 148.568 24.9513 149.057L26.4114 147.69C25.9549 147.202 25.4997 146.715 25.0459 146.228L23.5829 147.592ZM26.3277 150.524C26.7879 151.013 27.2493 151.503 27.712 151.993L29.166 150.62C28.7043 150.131 28.2439 149.642 27.7848 149.154L26.3277 150.524ZM29.0912 153.45C29.5459 153.929 30.0017 154.409 30.4588 154.889L31.9069 153.509C31.4509 153.031 30.996 152.552 30.5423 152.074L29.0912 153.45ZM31.8334 156.329C32.2928 156.809 32.7534 157.289 33.2151 157.77L34.6572 156.384C34.1966 155.905 33.737 155.425 33.2786 154.946L31.8334 156.329ZM34.6036 159.212C35.0675 159.693 35.5326 160.174 35.9988 160.654L37.4349 159.263C36.9698 158.783 36.5057 158.303 36.0427 157.823L34.6036 159.212ZM37.4007 162.098C37.8691 162.579 38.3385 163.06 38.8091 163.541L40.239 162.143C39.7695 161.663 39.3011 161.183 38.8338 160.703L37.4007 162.098ZM40.201 164.962C40.6658 165.435 41.1316 165.908 41.5984 166.381L43.0222 164.977C42.5565 164.505 42.0917 164.032 41.628 163.56L40.201 164.962ZM43.0016 167.801C43.4703 168.274 43.94 168.747 44.4107 169.22L45.8282 167.809C45.3587 167.337 44.89 166.865 44.4223 166.393L43.0016 167.801ZM45.8254 170.638C46.298 171.111 46.7714 171.583 47.2458 172.056L48.657 170.638C48.1837 170.167 47.7113 169.696 47.2399 169.224L45.8254 170.638ZM48.6716 173.472C49.1457 173.942 49.6206 174.412 50.0964 174.881L51.5012 173.458C51.0265 172.989 50.5526 172.521 50.0796 172.052L48.6716 173.472ZM51.5174 176.28C51.9919 176.746 52.4673 177.212 52.9434 177.678L54.3417 176.248C53.8666 175.783 53.3924 175.319 52.919 174.854L51.5174 176.28ZM54.3744 179.074C54.8521 179.539 55.3307 180.003 55.8101 180.468L57.2016 179.031C56.7234 178.568 56.2459 178.104 55.7693 177.641L54.3744 179.074ZM57.2504 181.86C57.7313 182.324 58.213 182.787 58.6954 183.25L60.0802 181.807C59.5989 181.345 59.1184 180.883 58.6386 180.42L57.2504 181.86ZM60.1448 184.637C60.6268 185.098 61.1094 185.557 61.5928 186.017L62.9706 184.567C62.4884 184.109 62.0069 183.65 61.5261 183.191L60.1448 184.637ZM63.0434 187.392C63.5276 187.85 64.0125 188.308 64.498 188.765L65.8688 187.308C65.3844 186.852 64.9007 186.396 64.4177 185.939L63.0434 187.392ZM65.9566 190.134C66.4435 190.59 66.931 191.045 67.4191 191.5L68.7826 190.037C68.2957 189.583 67.8094 189.129 67.3238 188.674L65.9566 190.134ZM68.8853 192.863C69.3747 193.317 69.8646 193.77 70.3552 194.223L71.7112 192.753C71.2219 192.301 70.7332 191.849 70.2451 191.397L68.8853 192.863ZM71.8286 195.578C72.3205 196.03 72.813 196.481 73.3061 196.931L74.6545 195.454C74.1628 195.005 73.6716 194.555 73.1809 194.105L71.8286 195.578ZM74.7868 198.279C75.281 198.728 75.7756 199.176 76.2708 199.623L77.6114 198.139C77.1176 197.693 76.6242 197.246 76.1314 196.798L74.7868 198.279ZM77.7578 200.963C78.254 201.408 78.7507 201.853 79.2479 202.298L80.5805 200.806C80.0847 200.363 79.5894 199.92 79.0945 199.475L77.7578 200.963ZM80.7408 203.628C81.2389 204.071 81.7374 204.512 82.2364 204.953L83.5608 203.455C83.0632 203.015 82.566 202.574 82.0693 202.133L80.7408 203.628ZM83.7385 206.277C84.2413 206.719 84.7446 207.16 85.2482 207.6L86.5641 206.094C86.0619 205.655 85.5601 205.215 85.0587 204.775L83.7385 206.277ZM86.7604 208.917C87.2648 209.355 87.7697 209.792 88.2749 210.229L89.582 208.715C89.0782 208.28 88.5749 207.844 88.0719 207.407L86.7604 208.917ZM89.7916 211.534C90.2976 211.969 90.8038 212.402 91.3105 212.834L92.6085 211.312C92.1034 210.882 91.5986 210.45 91.0942 210.017L89.7916 211.534ZM92.8313 214.127C93.3386 214.557 93.8462 214.987 94.3541 215.414L95.6428 213.885C95.1365 213.458 94.6304 213.031 94.1247 212.602L92.8313 214.127ZM95.8925 216.707C96.4067 217.137 96.9212 217.566 97.436 217.995L98.715 216.457C98.2018 216.03 97.6889 215.602 97.1763 215.173L95.8925 216.707ZM98.9812 219.276C99.4965 219.701 100.012 220.126 100.528 220.549L101.797 219.004C101.283 218.582 100.769 218.158 100.255 217.734L98.9812 219.276ZM102.076 221.816C102.592 222.237 103.108 222.656 103.625 223.074L104.884 221.52C104.369 221.103 103.854 220.685 103.34 220.266L102.076 221.816ZM105.175 224.325C105.695 224.743 106.214 225.159 106.733 225.574L107.981 224.011C107.464 223.597 106.946 223.183 106.429 222.767L105.175 224.325ZM108.312 226.829C108.838 227.246 109.365 227.662 109.891 228.076L111.128 226.504C110.603 226.091 110.079 225.677 109.554 225.262L108.312 226.829ZM111.471 229.314C111.998 229.725 112.525 230.135 113.052 230.543L114.276 228.962C113.752 228.555 113.227 228.147 112.702 227.737L111.471 229.314ZM114.633 231.763C115.16 232.168 115.687 232.571 116.214 232.973L117.427 231.382C116.902 230.982 116.376 230.58 115.851 230.177L114.633 231.763ZM117.796 234.174C118.333 234.58 118.87 234.984 119.407 235.387L120.607 233.787C120.072 233.386 119.537 232.983 119.002 232.578L117.796 234.174ZM121.024 236.594C121.563 236.995 122.102 237.394 122.641 237.791L123.827 236.181C123.291 235.785 122.754 235.388 122.217 234.989L121.024 236.594ZM124.258 238.977C124.797 239.37 125.335 239.762 125.874 240.151L127.046 238.531C126.51 238.143 125.974 237.753 125.437 237.361L124.258 238.977ZM127.49 241.315C128.028 241.701 128.566 242.085 129.105 242.467L130.262 240.836C129.727 240.456 129.191 240.073 128.655 239.689L127.49 241.315ZM130.746 243.626C131.299 244.015 131.852 244.401 132.404 244.786L133.547 243.144C132.996 242.762 132.446 242.377 131.896 241.99L130.746 243.626ZM134.062 245.933C134.614 246.313 135.166 246.691 135.718 247.067L136.844 245.414C136.295 245.04 135.746 244.664 135.196 244.286L134.062 245.933ZM137.373 248.188C137.925 248.56 138.476 248.929 139.027 249.296L140.135 247.631C139.587 247.266 139.039 246.899 138.491 246.53L137.373 248.188ZM140.678 250.39C141.239 250.759 141.799 251.125 142.358 251.489L143.449 249.813C142.892 249.451 142.335 249.086 141.778 248.719L140.678 250.39ZM144.062 252.591C144.63 252.956 145.197 253.318 145.764 253.677L146.835 251.988C146.272 251.631 145.708 251.271 145.143 250.908L144.062 252.591ZM147.463 254.748C148.03 255.103 148.595 255.454 149.16 255.803L150.211 254.101C149.649 253.755 149.087 253.405 148.525 253.053L147.463 254.748ZM150.854 256.842C151.419 257.186 151.982 257.527 152.545 257.865L153.575 256.15C153.015 255.814 152.455 255.475 151.895 255.134L150.854 256.842ZM154.282 258.899C154.867 259.245 155.451 259.588 156.034 259.927L157.04 258.199C156.461 257.861 155.881 257.521 155.3 257.178L154.282 258.899ZM157.783 260.937C158.366 261.27 158.947 261.601 159.528 261.928L160.51 260.185C159.933 259.86 159.355 259.532 158.777 259.201L157.783 260.937ZM161.27 262.899C161.849 263.22 162.428 263.538 163.006 263.852L163.961 262.094C163.388 261.783 162.813 261.468 162.238 261.149L161.27 262.899ZM164.752 264.791C165.355 265.113 165.958 265.431 166.559 265.746L167.486 263.973C166.889 263.661 166.291 263.346 165.693 263.026L164.752 264.791ZM168.362 266.678C168.962 266.985 169.562 267.289 170.16 267.588L171.055 265.8C170.462 265.503 169.868 265.202 169.273 264.898L168.362 266.678ZM171.952 268.475C172.548 268.767 173.144 269.055 173.738 269.34L174.601 267.535C174.012 267.254 173.422 266.968 172.831 266.679L171.952 268.475ZM175.519 270.18C176.139 270.47 176.757 270.754 177.375 271.035L178.202 269.214C177.59 268.936 176.978 268.654 176.364 268.368L175.519 270.18ZM179.235 271.868C179.853 272.141 180.471 272.409 181.087 272.673L181.875 270.835C181.265 270.574 180.654 270.308 180.042 270.038L179.235 271.868ZM182.932 273.451C183.546 273.706 184.159 273.956 184.77 274.202L185.515 272.346C184.911 272.103 184.306 271.856 183.699 271.604L182.932 273.451ZM186.599 274.924C187.24 275.173 187.88 275.416 188.518 275.654L189.217 273.781C188.587 273.546 187.956 273.305 187.323 273.06L186.599 274.924ZM190.434 276.355C191.071 276.583 191.707 276.806 192.341 277.023L192.989 275.131C192.364 274.917 191.737 274.697 191.108 274.472L190.434 276.355ZM194.238 277.658C194.869 277.864 195.498 278.064 196.125 278.259L196.718 276.348C196.1 276.157 195.48 275.959 194.859 275.756L194.238 277.658ZM198.035 278.836C198.697 279.03 199.357 279.217 200.015 279.399L200.546 277.47C199.899 277.292 199.25 277.108 198.599 276.916L198.035 278.836ZM201.982 279.922C202.635 280.09 203.287 280.251 203.936 280.406L204.399 278.46C203.761 278.308 203.121 278.15 202.479 277.985L201.982 279.922ZM205.877 280.849C206.522 280.989 207.165 281.123 207.806 281.251L208.195 279.289C207.567 279.164 206.937 279.033 206.304 278.895L205.877 280.849ZM209.837 281.631C210.513 281.751 211.185 281.862 211.855 281.965L212.159 279.988C211.504 279.887 210.846 279.779 210.185 279.662L209.837 281.631ZM213.856 282.25C214.521 282.337 215.182 282.416 215.841 282.486L216.054 280.497C215.411 280.429 214.765 280.352 214.116 280.267L213.856 282.25ZM217.809 282.673C218.5 282.729 219.188 282.777 219.872 282.815L219.983 280.818C219.317 280.781 218.647 280.735 217.973 280.679L217.809 282.673ZM221.917 282.9C222.595 282.919 223.27 282.928 223.941 282.927L223.939 280.927C223.287 280.928 222.631 280.919 221.972 280.901L221.917 282.9ZM225.945 282.895C226.618 282.874 227.287 282.843 227.952 282.802L227.828 280.806C227.184 280.846 226.535 280.876 225.883 280.896L225.945 282.895ZM230.005 282.64C230.685 282.575 231.362 282.499 232.034 282.411L231.775 280.428C231.126 280.512 230.472 280.586 229.815 280.649L230.005 282.64ZM234.037 282.113C234.701 282.002 235.36 281.88 236.015 281.746L235.614 279.787C234.983 279.916 234.348 280.034 233.708 280.14L234.037 282.113ZM238.007 281.299C238.671 281.137 239.33 280.962 239.984 280.774L239.432 278.851C238.804 279.032 238.17 279.2 237.532 279.356L238.007 281.299ZM241.931 280.173C242.576 279.959 243.215 279.733 243.849 279.494L243.143 277.623C242.535 277.852 241.921 278.069 241.303 278.274L241.931 280.173ZM245.735 278.738C246.358 278.472 246.976 278.194 247.589 277.902L246.729 276.096C246.142 276.376 245.55 276.643 244.952 276.897L245.735 278.738ZM249.41 276.987C250.012 276.669 250.608 276.337 251.198 275.991L250.188 274.265C249.622 274.596 249.051 274.914 248.475 275.219L249.41 276.987ZM252.952 274.914C253.513 274.553 254.067 274.179 254.617 273.793L253.465 272.157C252.939 272.528 252.407 272.886 251.869 273.232L252.952 274.914ZM256.246 272.595C256.784 272.182 257.316 271.757 257.842 271.318L256.561 269.782C256.056 270.204 255.545 270.612 255.029 271.008L256.246 272.595ZM259.403 269.963C259.903 269.511 260.398 269.046 260.887 268.569L259.489 267.137C259.019 267.597 258.543 268.044 258.061 268.479L259.403 269.963ZM262.284 267.154C262.744 266.67 263.199 266.175 263.649 265.668L262.152 264.341C261.718 264.831 261.279 265.308 260.835 265.774L262.284 267.154ZM264.982 264.11C265.421 263.579 265.854 263.036 266.282 262.48L264.697 261.26C264.283 261.797 263.864 262.323 263.44 262.836L264.982 264.11ZM267.485 260.867C267.865 260.338 268.242 259.8 268.613 259.252L266.957 258.13C266.597 258.663 266.232 259.185 265.862 259.697L267.485 260.867ZM269.714 257.575C270.076 257.006 270.433 256.426 270.785 255.836L269.068 254.811C268.725 255.385 268.378 255.948 268.026 256.502L269.714 257.575ZM271.828 254.035C272.161 253.442 272.49 252.838 272.813 252.225L271.045 251.291C270.729 251.89 270.408 252.478 270.084 253.057L271.828 254.035ZM273.699 250.498C273.991 249.914 274.278 249.321 274.561 248.72L272.752 247.867C272.475 248.455 272.194 249.035 271.91 249.605L273.699 250.498ZM275.399 246.889C275.674 246.271 275.945 245.643 276.212 245.007L274.368 244.233C274.106 244.856 273.841 245.471 273.571 246.077L275.399 246.889ZM277.001 243.072C277.249 242.444 277.494 241.808 277.734 241.164L275.861 240.464C275.624 241.096 275.385 241.72 275.141 242.336L277.001 243.072ZM278.394 239.35C278.611 238.738 278.824 238.119 279.034 237.493L277.138 236.857C276.932 237.473 276.722 238.081 276.509 238.682L278.394 239.35ZM279.654 235.594C279.858 234.953 280.058 234.306 280.254 233.651L278.338 233.076C278.145 233.721 277.948 234.358 277.748 234.989L279.654 235.594ZM280.833 231.665C281.023 230.995 281.209 230.319 281.391 229.635L279.459 229.119C279.279 229.793 279.096 230.46 278.909 231.12L280.833 231.665ZM281.886 227.732C282.043 227.112 282.197 226.486 282.348 225.854L280.403 225.389C280.254 226.012 280.102 226.63 279.947 227.241L281.886 227.732ZM282.793 223.942C282.939 223.299 283.081 222.649 283.221 221.994L281.266 221.576C281.127 222.224 280.986 222.865 280.842 223.501L282.793 223.942ZM283.633 220.011C283.767 219.344 283.899 218.671 284.028 217.992L282.063 217.62C281.935 218.292 281.805 218.957 281.672 219.616L283.633 220.011ZM284.405 215.938C284.524 215.267 284.641 214.591 284.755 213.91L282.782 213.58C282.669 214.255 282.554 214.924 282.436 215.587L284.405 215.938ZM285.061 212.019C285.161 211.384 285.259 210.744 285.354 210.1L283.376 209.807C283.281 210.446 283.185 211.08 283.086 211.708L285.061 212.019ZM285.633 208.151C285.724 207.497 285.812 206.838 285.898 206.174L283.915 205.917C283.829 206.575 283.742 207.229 283.652 207.877L285.633 208.151ZM286.149 204.167C286.23 203.493 286.309 202.815 286.386 202.131L284.398 201.908C284.322 202.587 284.244 203.26 284.163 203.928L286.149 204.167ZM286.608 200.065C286.68 199.372 286.75 198.673 286.817 197.97L284.826 197.78C284.759 198.478 284.69 199.171 284.619 199.859L286.608 200.065ZM286.993 196.047C287.049 195.411 287.103 194.771 287.155 194.126L285.162 193.965C285.11 194.605 285.056 195.24 285.001 195.872L286.993 196.047ZM287.306 192.182C287.354 191.529 287.4 190.873 287.445 190.213L285.449 190.078C285.405 190.734 285.359 191.386 285.311 192.034L287.306 192.182ZM287.572 188.219C287.613 187.551 287.651 186.879 287.688 186.202L285.691 186.094C285.655 186.766 285.616 187.434 285.576 188.098L287.572 188.219ZM287.792 184.16C287.824 183.476 287.855 182.787 287.884 182.094L285.886 182.011C285.857 182.7 285.827 183.385 285.794 184.065L287.792 184.16ZM287.964 180.003C287.976 179.653 287.988 179.301 287.999 178.948L286.001 178.883C285.989 179.234 285.977 179.584 285.965 179.933L287.964 180.003ZM287.999 178.948C288.011 178.604 288.022 178.262 288.034 177.92L286.035 177.849C286.023 178.193 286.012 178.538 286.001 178.883L287.999 178.948ZM288.112 175.874C288.14 175.195 288.17 174.518 288.202 173.844L286.205 173.749C286.172 174.427 286.142 175.108 286.114 175.792L288.112 175.874ZM288.304 171.828C288.34 171.158 288.378 170.491 288.418 169.826L286.421 169.707C286.381 170.376 286.343 171.047 286.307 171.721L288.304 171.828ZM288.543 167.84C288.587 167.18 288.632 166.522 288.68 165.867L286.685 165.723C286.637 166.382 286.591 167.044 286.547 167.708L288.543 167.84ZM288.828 163.91C288.88 163.26 288.933 162.612 288.988 161.967L286.995 161.796C286.94 162.446 286.886 163.098 286.834 163.752L288.828 163.91ZM289.159 160.038C289.222 159.358 289.287 158.68 289.354 158.005L287.363 157.808C287.296 158.488 287.231 159.17 287.168 159.854L289.159 160.038ZM289.562 155.978C289.633 155.305 289.707 154.635 289.783 153.968L287.795 153.742C287.719 154.414 287.645 155.089 287.573 155.767L289.562 155.978ZM290.016 151.973C290.096 151.311 290.178 150.652 290.263 149.995L288.279 149.741C288.194 150.402 288.111 151.066 288.031 151.733L290.016 151.973ZM290.521 148.033C290.61 147.381 290.7 146.733 290.793 146.087L288.813 145.803C288.72 146.454 288.629 147.108 288.54 147.764L290.521 148.033ZM291.077 144.156C291.173 143.516 291.272 142.878 291.373 142.242L289.397 141.929C289.296 142.569 289.196 143.212 289.099 143.858L291.077 144.156ZM291.701 140.228C291.813 139.557 291.927 138.889 292.043 138.223L290.073 137.878C289.956 138.549 289.841 139.222 289.728 139.898L291.701 140.228ZM292.4 136.237C292.521 135.578 292.645 134.922 292.77 134.269L290.806 133.891C290.68 134.549 290.555 135.211 290.433 135.876L292.4 136.237ZM293.154 132.318C293.284 131.671 293.417 131.027 293.552 130.385L291.594 129.974C291.458 130.621 291.325 131.271 291.193 131.924L293.154 132.318ZM293.962 128.47C294.101 127.834 294.243 127.202 294.386 126.572L292.436 126.127C292.292 126.763 292.149 127.401 292.009 128.042L293.962 128.47ZM294.838 124.632C294.995 123.969 295.155 123.31 295.317 122.654L293.376 122.173C293.212 122.835 293.051 123.501 292.892 124.169L294.838 124.632ZM295.812 120.695C295.979 120.046 296.148 119.399 296.32 118.756L294.388 118.239C294.215 118.889 294.043 119.541 293.875 120.197L295.812 120.695ZM296.844 116.837C297.02 116.2 297.2 115.567 297.381 114.937L295.459 114.383C295.276 115.019 295.095 115.659 294.917 116.301L296.844 116.837ZM297.933 113.056C298.12 112.432 298.308 111.811 298.499 111.194L296.589 110.603C296.396 111.226 296.205 111.853 296.017 112.483L297.933 113.056ZM299.1 109.289C299.307 108.642 299.517 108 299.73 107.36L297.832 106.729C297.617 107.375 297.405 108.025 297.195 108.678L299.1 109.289ZM300.375 105.453C300.593 104.82 300.813 104.191 301.036 103.566L299.152 102.895C298.927 103.527 298.704 104.162 298.484 104.801L300.375 105.453ZM301.712 101.701C301.94 101.082 302.17 100.468 302.403 99.8562L300.534 99.1442C300.299 99.7624 300.066 100.384 299.835 101.009L301.712 101.701ZM303.109 98.0326C303.348 97.4251 303.59 96.8212 303.834 96.2208L301.981 95.4677C301.734 96.075 301.49 96.6858 301.248 97.3001L303.109 98.0326ZM304.609 94.3441C304.871 93.7224 305.135 93.1044 305.401 92.4903L303.567 91.6938C303.297 92.3152 303.03 92.9404 302.766 93.5694L304.609 94.3441ZM306.209 90.6591C306.481 90.0525 306.756 89.4496 307.033 88.8505L305.218 88.0105C304.937 88.6169 304.659 89.227 304.384 89.8409L306.209 90.6591ZM307.873 87.0643C308.155 86.4726 308.44 85.8847 308.728 85.3004L306.934 84.4169C306.642 85.0084 306.354 85.6036 306.068 86.2026L307.873 87.0643ZM309.599 83.5588C309.905 82.9552 310.214 82.3557 310.526 81.7602L308.755 80.8321C308.439 81.4352 308.126 82.0423 307.815 82.6535L309.599 83.5588ZM311.471 79.984C311.789 79.3959 312.11 78.8119 312.433 78.2318L310.686 77.2582C310.359 77.8459 310.034 78.4375 309.712 79.0332L311.471 79.984ZM313.411 76.5035C313.74 75.9313 314.071 75.3631 314.405 74.7988L312.684 73.78C312.346 74.3518 312.01 74.9275 311.677 75.5072L313.411 76.5035ZM315.415 73.1177C315.757 72.5571 316.102 72.0004 316.449 71.4476L314.755 70.3837C314.403 70.9439 314.054 71.5082 313.708 72.0764L315.415 73.1177ZM317.533 69.748C317.897 69.1856 318.264 68.6274 318.634 68.0734L316.971 66.9632C316.596 67.5249 316.224 68.0907 315.854 68.6608L317.533 69.748ZM319.752 66.4238C320.127 65.8781 320.505 65.3365 320.886 64.799L319.254 63.643C318.867 64.188 318.484 64.7372 318.104 65.2906L319.752 66.4238ZM322.036 63.1987C322.422 62.6694 322.811 62.1442 323.202 61.623L321.603 60.422C321.206 60.9506 320.812 61.4833 320.42 62.0201L322.036 63.1987ZM324.41 60.0381C324.82 59.5083 325.233 58.9827 325.648 58.4614L324.084 57.215C323.663 57.7438 323.244 58.2769 322.828 58.8144L324.41 60.0381ZM326.903 56.9104C327.323 56.3976 327.747 55.8891 328.173 55.3849L326.646 54.0937C326.214 54.6053 325.784 55.1212 325.357 55.6414L326.903 56.9104ZM329.46 53.8846C329.892 53.3888 330.326 52.8971 330.763 52.4096L329.274 51.0747C328.831 51.5694 328.39 52.0683 327.952 52.5715L329.46 53.8846ZM332.093 50.947C332.547 50.4556 333.003 49.9686 333.462 49.4858L332.012 48.1078C331.547 48.5977 331.084 49.092 330.624 49.5906L332.093 50.947ZM334.847 48.0506C335.311 47.5765 335.778 47.1067 336.247 46.6412L334.839 45.221C334.363 45.6935 333.889 46.1702 333.418 46.6514L334.847 48.0506ZM337.664 45.2574C338.138 44.8004 338.615 44.3476 339.095 43.899L337.729 42.4381C337.242 42.8933 336.758 43.3528 336.276 43.8166L337.664 45.2574ZM340.547 42.5615C341.041 42.1133 341.537 41.6693 342.036 41.2297L340.714 39.7291C340.208 40.1752 339.704 40.6258 339.203 41.0807L340.547 42.5615ZM343.541 39.9237C344.045 39.4926 344.551 39.0658 345.06 38.6433L343.783 37.1044C343.266 37.5332 342.752 37.9663 342.241 38.4037L343.541 39.9237ZM346.595 37.3884C347.109 36.9744 347.625 36.5645 348.144 36.1588L346.912 34.5833C346.386 34.9949 345.862 35.4108 345.34 35.831L346.595 37.3884ZM349.71 34.9525C350.24 34.5505 350.772 34.1527 351.307 33.7591L350.121 32.1485C349.579 32.5478 349.039 32.9514 348.501 33.3593L349.71 34.9525ZM352.918 32.591C353.457 32.2059 353.999 31.8249 354.543 31.4481L353.404 29.8039C352.852 30.1862 352.303 30.5727 351.756 30.9634L352.918 32.591ZM356.182 30.3302C356.731 29.9617 357.282 29.5973 357.835 29.237L356.743 27.5612C356.182 27.9266 355.623 28.2961 355.067 28.6699L356.182 30.3302ZM359.502 28.1675C360.064 27.8132 360.627 27.463 361.192 27.1169L360.148 25.411C359.575 25.762 359.004 26.1171 358.435 26.4765L359.502 28.1675ZM362.895 26.0908C363.465 25.7529 364.037 25.419 364.611 25.0891L363.615 23.355C363.033 23.6894 362.453 24.028 361.875 24.3706L362.895 26.0908ZM366.339 24.1116C366.918 23.7897 367.498 23.4719 368.08 23.158L367.131 21.3975C366.541 21.7156 365.953 22.0378 365.367 22.364L366.339 24.1116ZM369.834 22.2279C370.421 21.9214 371.01 21.6188 371.602 21.3202L370.7 19.535C370.101 19.8376 369.504 20.1442 368.908 20.4549L369.834 22.2279ZM373.381 20.436C373.976 20.1451 374.573 19.8582 375.172 19.5751L374.318 17.7669C373.711 18.0537 373.106 18.3444 372.503 18.6391L373.381 20.436ZM376.974 18.7374C377.577 18.462 378.181 18.1904 378.788 17.9226L377.979 16.0932C377.366 16.3644 376.753 16.6394 376.143 16.9184L376.974 18.7374ZM380.611 17.131C381.219 16.8711 381.83 16.6151 382.442 16.3627L381.68 14.5137C381.06 14.7691 380.442 15.0284 379.825 15.2915L380.611 17.131ZM384.284 15.6169C384.899 15.3719 385.516 15.1307 386.135 14.8931L385.418 13.026C384.792 13.2665 384.167 13.5106 383.544 13.7586L384.284 15.6169ZM387.996 14.1914C388.618 13.9611 389.242 13.7345 389.867 13.5115L389.195 11.6278C388.562 11.8535 387.931 12.0828 387.302 12.3158L387.996 14.1914ZM391.744 12.854C392.37 12.6389 392.997 12.4274 393.625 12.2194L392.997 10.3207C392.361 10.5311 391.727 10.745 391.094 10.9626L391.744 12.854ZM395.516 11.606C396.147 11.405 396.78 11.2075 397.414 11.0134L396.829 9.10095C396.188 9.29718 395.548 9.49691 394.909 9.70019L395.516 11.606ZM399.321 10.4416C399.957 10.2544 400.596 10.0707 401.235 9.89031L400.692 7.96541C400.046 8.14773 399.401 8.3335 398.757 8.52275L399.321 10.4416ZM403.154 9.36036C403.792 9.18762 404.432 9.01821 405.073 8.8521L404.572 6.91603C403.924 7.0839 403.277 7.25512 402.631 7.42972L403.154 9.36036ZM407 8.36364C407.644 8.20411 408.288 8.04784 408.934 7.89481L408.473 5.94872C407.82 6.10333 407.169 6.26122 406.519 6.42243L407 8.36364ZM410.874 7.44542C411.522 7.29885 412.171 7.15548 412.821 7.0153L412.399 5.06026C411.743 5.20185 411.087 5.34666 410.433 5.49473L410.874 7.44542ZM414.769 6.60508C415.418 6.47194 416.067 6.34191 416.717 6.21497L416.334 4.25202C415.678 4.38019 415.022 4.5115 414.367 4.64596L414.769 6.60508ZM418.671 5.84339C419.323 5.7226 419.976 5.60487 420.63 5.49016L420.284 3.52025C419.624 3.63603 418.965 3.75489 418.307 3.87684L418.671 5.84339ZM422.594 5.15511C423.25 5.04644 423.906 4.94077 424.563 4.83807L424.254 2.86206C423.591 2.96571 422.929 3.07236 422.267 3.18204L422.594 5.15511ZM426.533 4.53936C427.188 4.44304 427.844 4.34963 428.501 4.2591L428.228 2.27784C427.565 2.36917 426.903 2.46342 426.242 2.56062L426.533 4.53936ZM430.473 3.99615C431.131 3.91136 431.79 3.82943 432.449 3.75033L432.211 1.76457C431.546 1.84436 430.882 1.92701 430.218 2.01255L430.473 3.99615ZM434.429 3.52146C435.09 3.44798 435.751 3.3773 436.412 3.30938L436.208 1.31984C435.541 1.38833 434.874 1.45962 434.208 1.53373L434.429 3.52146ZM438.396 3.11412C439.056 3.05194 439.717 2.99248 440.378 2.93571L440.207 0.943049C439.54 1.00029 438.874 1.06024 438.209 1.12294L438.396 3.11412ZM442.362 2.77344C443.024 2.72202 443.686 2.67326 444.349 2.62714L444.21 0.631966C443.542 0.678462 442.874 0.727613 442.207 0.77945L442.362 2.77344ZM446.337 2.49662C447.001 2.45573 447.664 2.41745 448.328 2.38173L448.221 0.384621C447.552 0.420612 446.883 0.4592 446.214 0.500415L446.337 2.49662ZM450.32 2.28233C450.983 2.2518 451.646 2.22381 452.31 2.19832L452.233 0.199794C451.564 0.225476 450.896 0.253685 450.228 0.28445L450.32 2.28233ZM454.301 2.12935C454.964 2.10884 455.628 2.09082 456.293 2.07524L456.246 0.0757893C455.577 0.0914811 454.908 0.109641 454.239 0.130298L454.301 2.12935ZM458.285 2.03583C458.95 2.02512 459.614 2.01684 460.279 2.01094L460.261 0.0110227C459.592 0.0169589 458.922 0.0253047 458.253 0.0360895L458.285 2.03583ZM462.272 2.00041C462.937 1.99927 463.602 2.0005 464.266 2.00406L464.277 0.00408702C463.608 0.000501422 462.938 -0.000732839 462.269 0.00041354L462.272 2.00041ZM466.26 2.02172C466.925 2.02992 467.589 2.04043 468.253 2.05321L468.292 0.0535815C467.623 0.0407079 466.954 0.0301271 466.285 0.0218683L466.26 2.02172ZM470.246 2.09837C470.91 2.11568 471.574 2.13525 472.238 2.15703L472.304 0.158102C471.635 0.136175 470.967 0.116481 470.298 0.0990517L470.246 2.09837ZM474.229 2.22901C474.894 2.25527 475.559 2.28374 476.224 2.31438L476.316 0.316502C475.647 0.28566 474.977 0.257006 474.308 0.230568L474.229 2.22901ZM478.217 2.41279C478.881 2.44775 479.545 2.48486 480.208 2.52408L480.326 0.527566C479.659 0.488092 478.991 0.450747 478.322 0.41556L478.217 2.41279ZM482.198 2.64806C482.861 2.69149 483.523 2.737 484.185 2.78457L484.328 0.789712C483.662 0.741843 482.996 0.696043 482.329 0.652342L482.198 2.64806ZM486.169 2.93342C486.834 2.98536 487.499 3.03935 488.162 3.09537L488.33 1.10245C487.663 1.04609 486.994 0.991763 486.325 0.939498L486.169 2.93342ZM490.152 3.26948C490.815 3.32951 491.478 3.39155 492.139 3.45554L492.332 1.46483C491.666 1.40045 491 1.33804 490.333 1.27763L490.152 3.26948ZM494.123 3.65339C494.783 3.72128 495.443 3.79111 496.102 3.86284L496.319 1.87458C495.655 1.80242 494.992 1.73217 494.327 1.66387L494.123 3.65339ZM498.078 4.08372C498.741 4.15986 499.404 4.23792 500.066 4.31784L500.306 2.33227C499.64 2.25187 498.973 2.17336 498.306 2.09676L498.078 4.08372ZM502.051 4.56338C502.712 4.64708 503.372 4.73263 504.031 4.82L504.294 2.83734C503.631 2.74947 502.967 2.66342 502.302 2.57923L502.051 4.56338ZM506.006 5.08754C506.663 5.17851 507.32 5.27127 507.976 5.36579L508.261 3.38625C507.602 3.2912 506.941 3.19791 506.28 3.10641L506.006 5.08754ZM509.94 5.65459C510.602 5.75377 511.262 5.85472 511.922 5.95741L512.23 3.98121C511.566 3.87795 510.902 3.77643 510.236 3.67668L509.94 5.65459ZM513.899 6.27088C514.557 6.37709 515.214 6.485 515.87 6.59459L516.2 4.62194C515.54 4.51174 514.88 4.40323 514.218 4.29643L513.899 6.27088ZM517.834 6.92836C518.488 7.04127 519.141 7.15582 519.792 7.27199L520.143 5.30307C519.488 5.18626 518.832 5.07108 518.175 4.95755L517.834 6.92836ZM521.743 7.62551C522.403 7.74689 523.061 7.8699 523.719 7.99452L524.091 6.02953C523.43 5.90424 522.768 5.78056 522.105 5.65851L521.743 7.62551ZM525.686 8.37313C526.341 8.50092 526.994 8.63027 527.645 8.76116L528.039 6.80031C527.384 6.66872 526.727 6.53867 526.069 6.4102L525.686 8.37313ZM529.596 9.1584C530.245 9.29232 530.893 9.42774 531.538 9.56464L531.953 7.6081C531.304 7.47048 530.653 7.33433 530.001 7.19968L529.596 9.1584ZM533.481 9.98169C534.137 10.1245 534.792 10.2688 535.446 10.4146L535.881 8.46257C535.224 8.31603 534.566 8.17095 533.906 8.02738L533.481 9.98169ZM537.401 10.8562C538.051 11.0049 538.699 11.155 539.345 11.3064L539.802 9.35917C539.152 9.20689 538.5 9.05601 537.847 8.90657L537.401 10.8562ZM541.279 11.765C541.922 11.9192 542.563 12.0748 543.203 12.2317L543.679 10.2893C543.037 10.1316 542.392 9.97518 541.746 9.82015L541.279 11.765ZM545.142 12.713C545.794 12.8767 546.444 13.0418 547.093 13.2083L547.59 11.2711C546.938 11.1038 546.285 10.9378 545.629 10.7732L545.142 12.713ZM549.031 13.7114C549.675 13.8804 550.317 14.0507 550.957 14.2222L551.475 12.2904C550.831 12.118 550.186 11.9468 549.539 11.7769L549.031 13.7114ZM552.87 14.7404C553.505 14.9144 554.138 15.0895 554.769 15.2658L555.307 13.3396C554.673 13.1624 554.037 12.9863 553.398 12.8114L552.87 14.7404ZM556.715 15.8152C557.361 15.9996 558.005 16.1852 558.646 16.3719L559.205 14.4517C558.561 14.2639 557.913 14.0773 557.264 13.892L556.715 15.8152ZM560.563 16.9355C561.199 17.1245 561.833 17.3146 562.464 17.5058L563.043 15.5917C562.409 15.3995 561.772 15.2083 561.132 15.0183L560.563 16.9355ZM564.349 18.0824C564.989 18.2803 565.627 18.4792 566.262 18.6791L566.863 16.7715C566.224 16.5704 565.583 16.3704 564.939 16.1715L564.349 18.0824ZM568.185 19.2906C568.822 19.4955 569.457 19.7013 570.089 19.9082L570.711 18.0074C570.076 17.7994 569.438 17.5924 568.796 17.3864L568.185 19.2906ZM571.975 20.5315C572.601 20.7402 573.223 20.9498 573.842 21.1603L574.486 19.2667C573.863 19.055 573.237 18.8442 572.608 18.6343L571.975 20.5315ZM575.727 21.8072C576.368 22.029 577.004 22.2518 577.637 22.4753L578.303 20.5895C577.666 20.3646 577.026 20.1405 576.382 19.9174L575.727 21.8072ZM579.526 23.1485C580.151 23.3737 580.773 23.5997 581.391 23.8264L582.08 21.9487C581.458 21.7206 580.832 21.4932 580.203 21.2667L579.526 23.1485ZM583.234 24.5087C583.54 24.6227 583.844 24.7369 584.147 24.8513L584.853 22.98C584.548 22.8649 584.242 22.7499 583.935 22.6352L583.234 24.5087Z" fill="#304050"/>
</svg>
