<svg width="182" height="40" viewBox="0 0 182 40" fill="none" xmlns="http://www.w3.org/2000/svg">
<path d="M66.44 14.92L65.08 16.7C64.5067 15.94 63.78 15.56 62.9 15.56C62.26 15.56 61.7933 15.72 61.5 16.04C61.2067 16.3467 61.06 16.7067 61.06 17.12C61.06 17.48 61.2 17.78 61.48 18.02C61.6933 18.22 62.2267 18.4733 63.08 18.78C64.4 19.2333 65.3 19.68 65.78 20.12C66.54 20.8 66.92 21.7333 66.92 22.92C66.92 24.2267 66.4867 25.2867 65.62 26.1C64.7667 26.9 63.6533 27.3 62.28 27.3C60.36 27.3 58.8267 26.46 57.68 24.78L59.38 23.16C59.6733 23.76 60.08 24.2067 60.6 24.5C61.12 24.7933 61.6467 24.94 62.18 24.94C62.78 24.94 63.2733 24.7733 63.66 24.44C64.0467 24.0933 64.24 23.6467 64.24 23.1C64.24 22.6333 64.0667 22.2333 63.72 21.9C63.4 21.6067 62.7133 21.28 61.66 20.92C60.6733 20.5867 59.9333 20.2 59.44 19.76C58.7333 19.1467 58.38 18.32 58.38 17.28C58.38 16.2 58.7467 15.28 59.48 14.52C60.2133 13.7467 61.2733 13.36 62.66 13.36C64.1667 13.36 65.4267 13.88 66.44 14.92ZM75.3636 18.58V20.98C74.8169 20.4733 74.1503 20.22 73.3636 20.22C72.5903 20.22 71.9903 20.46 71.5636 20.94C71.1369 21.4067 70.9236 21.98 70.9236 22.66C70.9236 23.3667 71.1569 23.9533 71.6236 24.42C72.1036 24.8867 72.7103 25.12 73.4436 25.12C74.1636 25.12 74.8036 24.8667 75.3636 24.36V26.74C74.6436 27.1 73.8969 27.28 73.1236 27.28C71.7769 27.28 70.6636 26.86 69.7836 26.02C68.8636 25.1533 68.4036 24.0467 68.4036 22.7C68.4036 21.2333 68.9036 20.06 69.9036 19.18C70.7436 18.4333 71.7836 18.06 73.0236 18.06C73.8636 18.06 74.6436 18.2333 75.3636 18.58ZM83.843 19.46V18.34H86.283V27H83.843V25.88C83.1896 26.8133 82.303 27.28 81.183 27.28C79.8763 27.28 78.8096 26.8333 77.983 25.94C77.1696 25.0467 76.763 23.9533 76.763 22.66C76.763 21.3533 77.163 20.26 77.963 19.38C78.763 18.5 79.7963 18.06 81.063 18.06C82.3163 18.06 83.243 18.5267 83.843 19.46ZM83.403 20.92C82.9496 20.4533 82.3763 20.22 81.683 20.22C80.9896 20.22 80.4163 20.4533 79.963 20.92C79.5096 21.3867 79.283 21.9667 79.283 22.66C79.283 23.3533 79.5096 23.94 79.963 24.42C80.4163 24.8867 80.9896 25.12 81.683 25.12C82.3763 25.12 82.9496 24.8867 83.403 24.42C83.8563 23.94 84.083 23.3533 84.083 22.66C84.083 21.9667 83.8563 21.3867 83.403 20.92ZM88.6092 27V18.34H91.0492V19.46C91.7159 18.5267 92.6092 18.06 93.7292 18.06C94.8626 18.06 95.7159 18.4133 96.2892 19.12C96.7426 19.68 96.9692 20.4933 96.9692 21.56V27H94.5292V22.28C94.5292 21.4667 94.3759 20.9 94.0692 20.58C93.7892 20.2867 93.4092 20.14 92.9292 20.14C92.2626 20.14 91.7626 20.3933 91.4292 20.9C91.1759 21.3 91.0492 21.86 91.0492 22.58V27H88.6092ZM111.521 15.9H108.521V27H105.921V15.9H102.921V13.66H111.521V15.9ZM117.897 24.22L120.137 24.58C120.043 24.82 119.917 25.06 119.757 25.3C119.61 25.5267 119.377 25.8133 119.057 26.16C118.737 26.4933 118.303 26.7667 117.757 26.98C117.21 27.18 116.583 27.28 115.877 27.28C114.517 27.28 113.41 26.8733 112.557 26.06C111.65 25.2067 111.197 24.08 111.197 22.68C111.197 21.2933 111.637 20.16 112.517 19.28C113.343 18.4667 114.43 18.06 115.777 18.06C117.243 18.06 118.37 18.5333 119.157 19.48C119.85 20.3067 120.197 21.44 120.197 22.88V23.08H113.717C113.717 23.6667 113.857 24.1533 114.137 24.54C114.537 25.0867 115.117 25.36 115.877 25.36C116.783 25.36 117.457 24.98 117.897 24.22ZM113.797 21.52H117.897C117.803 20.96 117.557 20.5333 117.157 20.24C116.77 19.9333 116.33 19.78 115.837 19.78C115.357 19.78 114.917 19.9333 114.517 20.24C114.13 20.5467 113.89 20.9733 113.797 21.52ZM122.086 12.42H124.526V27H122.086V12.42ZM133.111 24.22L135.351 24.58C135.258 24.82 135.131 25.06 134.971 25.3C134.825 25.5267 134.591 25.8133 134.271 26.16C133.951 26.4933 133.518 26.7667 132.971 26.98C132.425 27.18 131.798 27.28 131.091 27.28C129.731 27.28 128.625 26.8733 127.771 26.06C126.865 25.2067 126.411 24.08 126.411 22.68C126.411 21.2933 126.851 20.16 127.731 19.28C128.558 18.4667 129.645 18.06 130.991 18.06C132.458 18.06 133.585 18.5333 134.371 19.48C135.065 20.3067 135.411 21.44 135.411 22.88V23.08H128.931C128.931 23.6667 129.071 24.1533 129.351 24.54C129.751 25.0867 130.331 25.36 131.091 25.36C131.998 25.36 132.671 24.98 133.111 24.22ZM129.011 21.52H133.111C133.018 20.96 132.771 20.5333 132.371 20.24C131.985 19.9333 131.545 19.78 131.051 19.78C130.571 19.78 130.131 19.9333 129.731 20.24C129.345 20.5467 129.105 20.9733 129.011 21.52ZM143.901 19.46V18.34H146.341V26.6C146.341 27.4133 146.261 28.12 146.101 28.72C145.954 29.3333 145.634 29.8867 145.141 30.38C144.327 31.1933 143.187 31.6 141.721 31.6C140.307 31.6 139.227 31.2667 138.481 30.6C137.774 30 137.307 29.14 137.081 28.02H139.721C139.827 28.46 140.027 28.8067 140.321 29.06C140.654 29.3667 141.147 29.52 141.801 29.52C142.401 29.52 142.894 29.34 143.281 28.98C143.694 28.58 143.901 27.94 143.901 27.06V25.84C143.274 26.8 142.387 27.28 141.241 27.28C140.041 27.28 139.041 26.8867 138.241 26.1C137.321 25.18 136.861 24.0333 136.861 22.66C136.861 21.2333 137.307 20.0867 138.201 19.22C139.001 18.4467 139.994 18.06 141.181 18.06C142.381 18.06 143.287 18.5267 143.901 19.46ZM141.781 20.22C141.127 20.22 140.587 20.42 140.161 20.82C139.641 21.2867 139.381 21.9 139.381 22.66C139.381 23.34 139.594 23.9067 140.021 24.36C140.487 24.8667 141.074 25.12 141.781 25.12C142.421 25.12 142.961 24.92 143.401 24.52C143.921 24.04 144.181 23.42 144.181 22.66C144.181 21.9933 143.947 21.4133 143.481 20.92C143.027 20.4533 142.461 20.22 141.781 20.22ZM148.668 27V18.34H151.108V19.64C151.401 19.08 151.761 18.68 152.188 18.44C152.588 18.1867 153.068 18.06 153.628 18.06C153.948 18.06 154.294 18.1267 154.668 18.26L154.348 20.54C154.041 20.3267 153.661 20.22 153.208 20.22C152.501 20.22 151.961 20.4533 151.588 20.92C151.268 21.32 151.108 21.96 151.108 22.84V27H148.668ZM162.32 19.46V18.34H164.76V27H162.32V25.88C161.666 26.8133 160.78 27.28 159.66 27.28C158.353 27.28 157.286 26.8333 156.46 25.94C155.646 25.0467 155.24 23.9533 155.24 22.66C155.24 21.3533 155.64 20.26 156.44 19.38C157.24 18.5 158.273 18.06 159.54 18.06C160.793 18.06 161.72 18.5267 162.32 19.46ZM161.88 20.92C161.426 20.4533 160.853 20.22 160.16 20.22C159.466 20.22 158.893 20.4533 158.44 20.92C157.986 21.3867 157.76 21.9667 157.76 22.66C157.76 23.3533 157.986 23.94 158.44 24.42C158.893 24.8867 159.466 25.12 160.16 25.12C160.853 25.12 161.426 24.8867 161.88 24.42C162.333 23.94 162.56 23.3533 162.56 22.66C162.56 21.9667 162.333 21.3867 161.88 20.92ZM167.086 27V18.34H169.526V19.32C170.192 18.48 171.052 18.06 172.106 18.06C173.399 18.06 174.312 18.5867 174.846 19.64C175.499 18.5867 176.426 18.06 177.626 18.06C178.639 18.06 179.419 18.4133 179.966 19.12C180.219 19.4533 180.379 19.8 180.446 20.16C180.526 20.52 180.566 20.9867 180.566 21.56V27H178.126V22.28C178.126 21.4667 177.992 20.9 177.726 20.58C177.486 20.2867 177.152 20.14 176.726 20.14C176.112 20.14 175.666 20.3933 175.386 20.9C175.159 21.2733 175.046 21.8333 175.046 22.58V27H172.606V22.28C172.606 21.4667 172.472 20.9 172.206 20.58C171.966 20.2867 171.632 20.14 171.206 20.14C170.592 20.14 170.146 20.3933 169.866 20.9C169.639 21.2733 169.526 21.8333 169.526 22.58V27H167.086Z" fill="white"/>
<path d="M4.61668 16.6667C3.90001 16.6667 3.33334 16.1 3.33334 15.3834V11.5334C3.33334 7.01671 7.01668 3.33337 11.5333 3.33337H15.3833C16.1 3.33337 16.6667 3.90004 16.6667 4.61671C16.6667 5.33337 16.1 5.90004 15.3833 5.90004H11.5333C8.41668 5.90004 5.90001 8.43337 5.90001 11.5334V15.3834C5.90001 16.1 5.31668 16.6667 4.61668 16.6667Z" fill="white"/>
<path d="M35.3833 16.6667C34.6833 16.6667 34.1 16.1 34.1 15.3834V11.5334C34.1 8.41671 31.5667 5.90004 28.4667 5.90004H24.6167C23.9 5.90004 23.3333 5.31671 23.3333 4.61671C23.3333 3.91671 23.9 3.33337 24.6167 3.33337H28.4667C32.9833 3.33337 36.6667 7.01671 36.6667 11.5334V15.3834C36.6667 16.1 36.1 16.6667 35.3833 16.6667Z" fill="white"/>
<path d="M28.4667 36.6666H26.15C25.45 36.6666 24.8667 36.1 24.8667 35.3833C24.8667 34.6833 25.4333 34.1 26.15 34.1H28.4667C31.5833 34.1 34.1 31.5666 34.1 28.4666V26.1666C34.1 25.4666 34.6667 24.8833 35.3833 24.8833C36.0833 24.8833 36.6667 25.45 36.6667 26.1666V28.4666C36.6667 32.9833 32.9833 36.6666 28.4667 36.6666Z" fill="white"/>
<path d="M15.3833 36.6667H11.5333C7.01668 36.6667 3.33334 32.9834 3.33334 28.4667V24.6167C3.33334 23.9 3.90001 23.3334 4.61668 23.3334C5.33334 23.3334 5.90001 23.9 5.90001 24.6167V28.4667C5.90001 31.5834 8.43334 34.1 11.5333 34.1H15.3833C16.0833 34.1 16.6667 34.6667 16.6667 35.3834C16.6667 36.1 16.1 36.6667 15.3833 36.6667Z" fill="white"/>
<rect x="10" y="10" width="20" height="20" rx="5" fill="white"/>
</svg>
