<svg width="65" height="65" viewBox="0 0 65 65" fill="none" xmlns="http://www.w3.org/2000/svg">
<rect width="65" height="65" rx="15" fill="#F191A2"/>
<path d="M24 33.3333C20.32 33.3333 17.3334 36.3066 17.3334 40C17.3334 43.6933 20.32 46.6666 24 46.6666C27.68 46.6666 30.6667 43.68 30.6667 40C30.6667 36.32 27.6934 33.3333 24 33.3333ZM21.28 37.28H24C24.5067 37.28 24.9067 37.6933 24.9067 38.1866C24.9067 38.68 24.5067 39.0933 24 39.0933H21.28C20.7734 39.0933 20.3734 38.68 20.3734 38.1866C20.3734 37.6933 20.7734 37.28 21.28 37.28ZM26.72 42.72H21.28C20.7734 42.72 20.3734 42.3066 20.3734 41.8133C20.3734 41.32 20.7867 40.9066 21.28 40.9066H26.7334C27.24 40.9066 27.64 41.32 27.64 41.8133C27.64 42.3066 27.2267 42.72 26.72 42.72Z" fill="white"/>
<path d="M38.6666 20H25.3333C21.3333 20 18.6666 22 18.6666 26.6667V30.8533C18.6666 31.8267 19.6666 32.44 20.56 32.0533C22.0266 31.4133 23.6933 31.1733 25.44 31.4533C28.9333 32.0267 31.7866 34.7867 32.4933 38.2533C32.6933 39.2667 32.72 40.2533 32.5866 41.2C32.48 41.9867 33.12 42.68 33.9066 42.68H38.6666C42.6666 42.68 45.3333 40.68 45.3333 36.0133V26.6667C45.3333 22 42.6666 20 38.6666 20ZM39.2933 27.4533L35.12 30.7867C34.24 31.4933 33.12 31.84 32 31.84C30.88 31.84 29.7466 31.4933 28.88 30.7867L24.7066 27.4533C24.28 27.1067 24.2133 26.4667 24.5466 26.04C24.8933 25.6133 25.52 25.5333 25.9466 25.88L30.12 29.2133C31.1333 30.0267 32.8533 30.0267 33.8666 29.2133L38.04 25.88C38.4666 25.5333 39.1066 25.6 39.44 26.04C39.7866 26.4667 39.72 27.1067 39.2933 27.4533Z" fill="white"/>
</svg>
