<svg width="65" height="65" viewBox="0 0 65 65" fill="none" xmlns="http://www.w3.org/2000/svg">
<rect width="65" height="65" rx="15" fill="#FEB05F"/>
<path d="M44.6667 31.5334V22.4667C44.6667 20.4667 43.8134 19.6667 41.6934 19.6667H36.3067C34.1867 19.6667 33.3334 20.4667 33.3334 22.4667V31.5334C33.3334 33.5334 34.1867 34.3334 36.3067 34.3334H41.6934C43.8134 34.3334 44.6667 33.5334 44.6667 31.5334Z" fill="white"/>
<path d="M30.6667 34.4667V43.5334C30.6667 45.5334 29.8134 46.3334 27.6934 46.3334H22.3067C20.1867 46.3334 19.3334 45.5334 19.3334 43.5334V34.4667C19.3334 32.4667 20.1867 31.6667 22.3067 31.6667H27.6934C29.8134 31.6667 30.6667 32.4667 30.6667 34.4667Z" fill="white"/>
<path d="M44.6667 43.5333V39.8C44.6667 37.8 43.8134 37 41.6934 37H36.3067C34.1867 37 33.3334 37.8 33.3334 39.8V43.5333C33.3334 45.5333 34.1867 46.3333 36.3067 46.3333H41.6934C43.8134 46.3333 44.6667 45.5333 44.6667 43.5333Z" fill="white"/>
<path d="M30.6667 26.2V22.4667C30.6667 20.4667 29.8134 19.6667 27.6934 19.6667H22.3067C20.1867 19.6667 19.3334 20.4667 19.3334 22.4667V26.2C19.3334 28.2 20.1867 29 22.3067 29H27.6934C29.8134 29 30.6667 28.2 30.6667 26.2Z" fill="white"/>
</svg>
