<svg width="65" height="65" viewBox="0 0 65 65" fill="none" xmlns="http://www.w3.org/2000/svg">
<rect width="65" height="65" rx="15" fill="#C36BE1"/>
<path d="M43.9867 28.9467C43.5333 28.76 42.9333 28.6667 42.1867 28.6667H35.1467C32.8267 28.6667 32 29.4934 32 31.84V42.16C32 42.9334 32.0933 43.5334 32.2933 44C32.7067 44.96 33.5867 45.3334 35.1467 45.3334H42.1867C44.5067 45.3334 45.3333 44.4934 45.3333 42.16V31.84C45.3333 30.2534 44.96 29.36 43.9867 28.9467ZM40 42.3334H37.3333C37.3067 42.3334 37.2667 42.3334 37.24 42.32C37.04 42.3067 36.8667 42.24 36.72 42.1067C36.48 41.9334 36.3333 41.6534 36.3333 41.3334C36.3333 40.7867 36.7867 40.3334 37.3333 40.3334H40C40.5467 40.3334 41 40.7867 41 41.3334C41 41.88 40.5467 42.3334 40 42.3334Z" fill="white"/>
<path d="M43.9867 24.2534V25.3334C43.9867 26.0667 43.3867 26.6667 42.6534 26.6667H35.1467C31.7334 26.6667 30.0001 28.4134 30.0001 31.84V44C30.0001 44.7334 29.4001 45.3334 28.6667 45.3334H26.0667C25.5334 45.3334 25.1067 44.9067 25.1067 44.3867C25.1067 43.8534 25.5334 43.44 26.0667 43.44H28.6667V38.3334H24.0001C21.0401 38.1867 18.6801 35.7467 18.6801 32.7467V24.2534C18.6801 21.1734 21.1867 18.6667 24.2801 18.6667H38.4001C41.4801 18.6667 43.9867 21.1734 43.9867 24.2534Z" fill="white"/>
</svg>
