<svg width="65" height="65" viewBox="0 0 65 65" fill="none" xmlns="http://www.w3.org/2000/svg">
<rect width="65" height="65" rx="15" fill="#91B7F1"/>
<path d="M44.7467 30.32L42.9467 28.2133C42.6133 27.8133 42.3333 27.0667 42.3333 26.5333V24.2667C42.3333 22.8533 41.1733 21.6933 39.76 21.6933H37.4933C36.96 21.6933 36.2 21.4133 35.8 21.08L33.6933 19.28C32.7733 18.4933 31.2667 18.4933 30.3467 19.28L28.2133 21.08C27.8133 21.4133 27.0667 21.6933 26.5333 21.6933H24.2267C22.8133 21.6933 21.6533 22.8533 21.6533 24.2667V26.5333C21.6533 27.0533 21.3867 27.8 21.0533 28.2L19.2533 30.32C18.48 31.2533 18.48 32.7467 19.2533 33.6533L21.0533 35.7733C21.3867 36.16 21.6533 36.92 21.6533 37.44V39.72C21.6533 41.1333 22.8133 42.2933 24.2267 42.2933H26.5467C27.0667 42.2933 27.8267 42.5733 28.2267 42.9067L30.3333 44.7067C31.2533 45.4933 32.76 45.4933 33.68 44.7067L35.7867 42.9067C36.1867 42.5733 36.9333 42.2933 37.4667 42.2933H39.7333C41.1467 42.2933 42.3067 41.1333 42.3067 39.72V37.4533C42.3067 36.92 42.5867 36.1733 42.92 35.7733L44.72 33.6667C45.5333 32.76 45.5333 31.2533 44.7467 30.32ZM31 26.84C31 26.2933 31.4533 25.84 32 25.84C32.5467 25.84 33 26.2933 33 26.84V33.28C33 33.8267 32.5467 34.28 32 34.28C31.4533 34.28 31 33.8267 31 33.28V26.84ZM32 38.4933C31.2667 38.4933 30.6667 37.8933 30.6667 37.16C30.6667 36.4267 31.2533 35.8267 32 35.8267C32.7333 35.8267 33.3333 36.4267 33.3333 37.16C33.3333 37.8933 32.7467 38.4933 32 38.4933Z" fill="white"/>
</svg>
